<svg width="16" height="19" viewBox="0 0 16 19" fill="none" xmlns="http://www.w3.org/2000/svg">
<rect y="0.866364" width="16" height="17.6467" rx="2" fill="#EDF9F2"/>
<path d="M5.92563 9.31147C5.46168 8.80026 4.67115 8.76194 4.15994 9.2259C3.64873 9.68985 3.61041 10.4804 4.07436 10.9916L5.92563 9.31147ZM7.2944 12.6797L6.36876 13.5197C6.60988 13.7854 6.95354 13.9347 7.31229 13.9295C7.67104 13.9244 8.01028 13.7654 8.2437 13.4929L7.2944 12.6797ZM12.6947 8.2971C13.1438 7.77281 13.0829 6.9837 12.5586 6.53457C12.0343 6.08545 11.2452 6.14637 10.7961 6.67066L12.6947 8.2971ZM4.07436 10.9916L6.36876 13.5197L8.22003 11.8396L5.92563 9.31147L4.07436 10.9916ZM8.2437 13.4929L12.6947 8.2971L10.7961 6.67066L6.3451 11.8664L8.2437 13.4929Z" fill="#47BF7C"/>
</svg>
